HIERARCHY
ROOT grazing
{
	OFFSET 0.000000 0.000000 0.000000
	CHANNELS 6 Xposition Yposition Zposition Xrotation Yrotation Zrotation
	JOINT Spine_01
	{
		OFFSET -0.129383 138.184219 -44.816219
		CHANNELS 3 Xrotation Yrotation Zrotation
		JOINT Spine_02
		{
			OFFSET 0.032580 -4.184952 28.051395
			CHANNELS 3 Xrotation Yrotation Zrotation
			JOINT Spine_03
			{
				OFFSET 0.047570 -2.923248 35.453762
				CHANNELS 3 Xrotation Yrotation Zrotation
				JOINT Spine_04
				{
					OFFSET 0.044083 1.225815 39.268154
					CHANNELS 3 Xrotation Yrotation Zrotation
					JOINT Neck_Base
					{
						OFFSET -0.000963 3.590073 29.437141
						CHANNELS 3 Xrotation Yrotation Zrotation
						JOINT Neck_01
						{
							OFFSET 0.092703 17.641830 9.943626
							CHANNELS 3 Xrotation Yrotation Zrotation
							JOINT Neck_02
							{
								OFFSET 0.175061 14.629852 15.949150
								CHANNELS 3 Xrotation Yrotation Zrotation
								JOINT Head
								{
									OFFSET 0.180271 14.779541 16.249443
									CHANNELS 3 Xrotation Yrotation Zrotation
									JOINT L_Ear
									{
										OFFSET 7.917662 16.573578 9.239914
										CHANNELS 3 Xrotation Yrotation Zrotation
										End Site
										{
											OFFSET 5.506275 6.600510 -14.525719
										}
									}
									JOINT R_Ear
									{
										OFFSET -7.930379 16.482681 9.390472
										CHANNELS 3 Xrotation Yrotation Zrotation
										End Site
										{
											OFFSET 5.622919 -6.947723 14.317612
										}
									}
									JOINT Jaw
									{
										OFFSET 0.105440 -4.313263 8.478989
										CHANNELS 3 Xrotation Yrotation Zrotation
										End Site
										{
											OFFSET -0.113940 16.777054 -1.843719
										}
									}
								}
							}
						}
					}
					JOINT R_Scapula
					{
						OFFSET -6.757957 17.541504 7.673218
						CHANNELS 3 Xrotation Yrotation Zrotation
						JOINT R_Shoulder
						{
							OFFSET -4.010690 -35.520454 22.008934
							CHANNELS 3 Xrotation Yrotation Zrotation
							JOINT R_Front_UpperLeg
							{
								OFFSET -3.178289 -27.351189 -18.721985
								CHANNELS 3 Xrotation Yrotation Zrotation
								JOINT R_Front_LowerLeg
								{
									OFFSET 1.577043 -39.717815 2.872879
									CHANNELS 3 Xrotation Yrotation Zrotation
									JOINT R_Front_Ankle
									{
										OFFSET 1.212476 -30.536352 2.208710
										CHANNELS 3 Xrotation Yrotation Zrotation
										JOINT R_Front_Hoof
										{
											OFFSET 0.000342 -9.175894 4.108330
											CHANNELS 3 Xrotation Yrotation Zrotation
											End Site
											{
												OFFSET -0.000968 -0.003001 -10.053627
											}
										}
									}
								}
							}
						}
					}
					JOINT L_Scapula
					{
						OFFSET 6.754650 17.542450 7.673592
						CHANNELS 3 Xrotation Yrotation Zrotation
						JOINT L_Shoulder
						{
							OFFSET 2.975042 -35.660225 21.946541
							CHANNELS 3 Xrotation Yrotation Zrotation
							JOINT L_Front_UpperLeg
							{
								OFFSET 1.997639 -26.938614 -19.468323
								CHANNELS 3 Xrotation Yrotation Zrotation
								JOINT L_Front_LowerLeg
								{
									OFFSET -0.859948 -39.609417 -4.310402
									CHANNELS 3 Xrotation Yrotation Zrotation
									JOINT L_Front_Ankle
									{
										OFFSET -0.661089 -30.452604 -3.317894
										CHANNELS 3 Xrotation Yrotation Zrotation
										JOINT L_Front_Hoof
										{
											OFFSET 0.006329 -9.222298 4.002907
											CHANNELS 3 Xrotation Yrotation Zrotation
											End Site
											{
												OFFSET 0.012729 -0.112079 10.052925
											}
										}
									}
								}
							}
						}
					}
				}
			}
		}
		JOINT L_Hip
		{
			OFFSET 14.887411 -7.729385 -12.131313
			CHANNELS 3 Xrotation Yrotation Zrotation
			JOINT L_Back_UpperLeg
			{
				OFFSET 0.000001 -34.478600 8.440956
				CHANNELS 3 Xrotation Yrotation Zrotation
				JOINT L_Back_LowerLeg
				{
					OFFSET -3.102231 -42.369041 -14.583923
					CHANNELS 3 Xrotation Yrotation Zrotation
					JOINT L_Back_Ankle
					{
						OFFSET 1.691245 -33.751545 12.939045
						CHANNELS 3 Xrotation Yrotation Zrotation
						JOINT L_Back_Hoof
						{
							OFFSET 0.582795 -11.035055 3.767303
							CHANNELS 3 Xrotation Yrotation Zrotation
							End Site
							{
								OFFSET 1.784863 0.000005 11.537724
							}
						}
					}
				}
			}
		}
		JOINT R_Hip
		{
			OFFSET -14.887404 -7.729263 -12.131306
			CHANNELS 3 Xrotation Yrotation Zrotation
			JOINT R_Back_UpperLeg
			{
				OFFSET -0.000001 -35.225861 4.378204
				CHANNELS 3 Xrotation Yrotation Zrotation
				JOINT R_Back_LowerLeg
				{
					OFFSET 4.043012 -39.348255 -21.279457
					CHANNELS 3 Xrotation Yrotation Zrotation
					JOINT R_Back_Ankle
					{
						OFFSET -0.850852 -36.025299 3.302155
						CHANNELS 3 Xrotation Yrotation Zrotation
						JOINT R_Back_Hoof
						{
							OFFSET -0.765644 -11.035027 3.734421
							CHANNELS 3 Xrotation Yrotation Zrotation
							End Site
							{
								OFFSET 2.348502 0.000011 -11.436279
							}
						}
					}
				}
			}
		}
		JOINT Tail_01
		{
			OFFSET 0.000002 9.427811 -23.815601
			CHANNELS 3 Xrotation Yrotation Zrotation
			JOINT Tail_02
			{
				OFFSET 1.392921 -20.670601 -20.692398
				CHANNELS 3 Xrotation Yrotation Zrotation
				JOINT Tail_03
				{
					OFFSET 4.432461 -30.496399 -2.871277
					CHANNELS 3 Xrotation Yrotation Zrotation
					JOINT Tail_04
					{
						OFFSET 9.035032 -29.305908 2.692459
						CHANNELS 3 Xrotation Yrotation Zrotation
						JOINT Tail_05
						{
							OFFSET 15.721539 -26.681099 0.529083
							CHANNELS 3 Xrotation Yrotation Zrotation
							End Site
							{
								OFFSET -2.534342 -0.186981 -30.868584
							}
						}
					}
				}
			}
		}
	}
}
MOTION
Frames: 8
Frame Time: 0.033333
0.000000 0.000000 0.000000 0.000006 -0.000000 -0.000000 0.000026 0.000007 0.000000 0.683962 -1.424922 0.526642 4.727874 -1.102488 -0.146676 4.169703 -0.161730 0.030256 96.885851 0.342221 5.785782 5.462913 -3.109675 3.273749 -8.803304 -4.699983 -1.261181 -47.909498 -5.640167 4.713505 -2.725660 -10.048025 -0.372226 2.314429 13.153194 -4.003127 2.433828 -0.166164 -0.286794 -11.063392 1.601951 -0.352246 11.365394 -1.295202 0.100096 -10.899623 3.116956 1.536831 -0.000099 0.000095 0.000002 1.019648 -0.762743 -1.223846 -0.000009 -0.000070 0.000027 -9.507060 -1.034749 0.420346 11.572568 0.901698 -0.171822 -12.959528 3.639343 0.657136 0.000003 -0.000000 0.000001 1.333549 -0.858598 -1.272230 -0.000005 0.000078 -0.000043 -0.000010 -0.000001 -0.000002 1.440642 0.697926 -1.013408 0.711735 -0.011340 -0.120572 -2.138417 -0.716241 1.116562 -0.000017 0.000047 -0.000022 -0.000011 0.000000 0.000001 0.367947 1.106871 -1.080104 2.814508 -0.001107 0.562479 -3.176903 -1.092858 0.505094 0.000004 -0.000002 0.000003 -2.295726 0.718029 8.018689 -3.150159 5.493380 5.407462 -3.789713 5.839633 2.212858 -4.571381 4.936669 -2.537716 -5.986298 4.301044 -11.158633 
0.000000 0.000000 0.000000 0.000006 -0.000000 -0.000000 0.000026 0.000007 0.000000 0.684128 -1.436597 0.525499 4.727815 -1.102793 -0.146879 4.169448 -0.153175 0.030368 97.024312 0.361427 5.806923 5.307676 -3.168056 3.193891 -8.889822 -4.702266 -1.255926 -48.232812 -5.696467 4.744354 -2.585825 -10.135167 -0.299723 2.343516 13.160321 -4.111490 1.768852 -0.160199 -0.202353 -11.068708 1.600777 -0.349461 11.365374 -1.295282 0.100117 -10.891878 3.125079 1.536846 -0.000099 0.000095 0.000002 1.016452 -0.765556 -1.228824 -0.000008 -0.000072 0.000028 -9.508207 -1.032234 0.416316 11.573300 0.901754 -0.171837 -12.958592 3.647157 0.672484 0.000002 -0.000000 0.000001 1.332912 -0.865614 -1.283460 -0.000000 0.000088 -0.000047 -0.000010 -0.000001 -0.000002 1.438862 0.705678 -1.021287 0.715447 -0.011403 -0.121200 -2.139996 -0.724121 1.124873 -0.000019 0.000049 -0.000022 -0.000011 0.000000 0.000001 0.367986 1.113322 -1.086940 2.814316 -0.001107 0.562441 -3.176286 -1.099426 0.511803 0.000005 -0.000008 0.000005 -2.195226 0.293924 7.667555 -3.049700 4.898765 5.850946 -3.720451 5.381720 3.407251 -4.425262 4.420007 -0.520445 -5.666677 3.620705 -8.182007 
0.000000 0.000000 0.000000 0.000006 -0.000000 -0.000000 0.000026 0.000007 0.000000 0.684289 -1.447585 0.524413 4.727766 -1.103087 -0.147071 4.169188 -0.144966 0.030507 97.161299 0.381030 5.829022 5.154333 -3.227102 3.112534 -8.976054 -4.704538 -1.250948 -48.556552 -5.752728 4.775080 -2.447872 -10.223554 -0.220438 2.371145 13.163486 -4.214129 1.114026 -0.148500 -0.125280 -11.074051 1.599615 -0.346682 11.365567 -1.295217 0.100098 -10.884156 3.132450 1.536768 -0.000099 0.000095 0.000002 1.013214 -0.768107 -1.233284 -0.000010 -0.000074 0.000029 -9.509339 -1.029712 0.412287 11.574177 0.901821 -0.171858 -12.957700 3.654159 0.687277 0.000002 -0.000000 0.000002 1.332289 -0.872358 -1.294133 -0.000002 0.000098 -0.000051 -0.000010 -0.000001 -0.000002 1.437041 0.713000 -1.028701 0.719020 -0.011463 -0.121805 -2.141565 -0.731561 1.132750 -0.000019 0.000050 -0.000023 -0.000011 0.000000 0.000001 0.368027 1.119469 -1.093346 2.814143 -0.001109 0.562407 -3.175595 -1.105625 0.518083 0.000004 -0.000011 0.000006 -2.066356 -0.117197 7.070493 -2.878634 4.159305 6.149553 -3.548031 4.768250 4.488109 -4.142409 3.779133 1.405136 -5.167397 2.858611 -5.219094 
0.000000 0.000000 0.000000 0.000006 -0.000000 -0.000000 0.000026 0.000007 0.000000 0.684454 -1.457919 0.523355 4.727715 -1.103357 -0.147244 4.168935 -0.137103 0.030669 97.279639 0.397926 5.847677 5.022124 -3.278616 3.041270 -9.051051 -4.706692 -1.246509 -48.839418 -5.802740 4.802167 -2.311782 -10.313075 -0.134571 2.397378 13.162591 -4.310850 0.548202 -0.133379 -0.062022 -11.079450 1.598438 -0.343918 11.365561 -1.295305 0.100121 -10.876354 3.139114 1.536621 -0.000099 0.000095 0.000002 1.009800 -0.770420 -1.237263 -0.000011 -0.000077 0.000030 -9.510496 -1.027205 0.408244 11.575014 0.901885 -0.171877 -12.956880 3.660400 0.701559 0.000003 -0.000000 0.000001 1.331705 -0.878842 -1.304241 -0.000003 0.000198 -0.000095 -0.000010 -0.000001 -0.000002 1.435217 0.719917 -1.035666 0.722443 -0.011522 -0.122384 -2.142960 -0.738577 1.140157 -0.000019 0.000053 -0.000024 -0.000011 0.000000 0.000001 0.368063 1.125337 -1.099330 2.813993 -0.001108 0.562376 -3.174920 -1.111414 0.524101 0.000003 -0.000015 0.000008 -1.919906 -0.462105 6.215856 -2.646524 3.305837 6.294264 -3.278158 4.029294 5.435015 -3.728722 3.049232 3.212602 -4.496388 2.060824 -2.305159 
0.000000 0.000000 0.000000 0.000006 -0.000000 -0.000000 0.000026 0.000007 0.000000 0.684604 -1.467607 0.522348 4.727664 -1.103598 -0.147400 4.168671 -0.129602 0.030843 97.362864 0.408938 5.858259 4.929504 -3.314217 2.992034 -9.103966 -4.708484 -1.242763 -49.039826 -5.839898 4.822023 -2.177576 -10.403653 -0.042315 2.422199 13.157522 -4.401466 0.150647 -0.114770 -0.018446 -11.084880 1.597290 -0.341151 11.365757 -1.295239 0.100102 -10.868545 3.145108 1.536423 -0.000100 0.000095 0.000002 1.006277 -0.772499 -1.240772 -0.000008 -0.000079 0.000031 -9.511639 -1.024687 0.404217 11.575861 0.901950 -0.171895 -12.956278 3.665926 0.715328 0.000003 -0.000000 0.000001 1.331179 -0.885078 -1.313850 -0.000003 -0.000003 -0.000008 -0.000010 -0.000001 -0.000002 1.433377 0.726374 -1.042230 0.725816 -0.011577 -0.122956 -2.144525 -0.745202 1.147115 -0.000018 0.000055 -0.000024 -0.000011 0.000000 0.000001 0.368128 1.130755 -1.104995 2.813827 -0.001108 0.562343 -3.174176 -1.116856 0.529701 0.000005 -0.000020 0.000009 -1.766616 -0.742600 5.145983 -2.365898 2.368234 6.275921 -2.921318 3.192894 6.227991 -3.196481 2.261957 4.875802 -3.670288 1.268044 0.523950 
0.000000 0.000000 0.000000 0.000006 -0.000000 -0.000000 0.000026 0.000007 0.000000 0.684761 -1.476685 0.521366 4.727605 -1.103823 -0.147543 4.168416 -0.122468 0.031041 97.394837 0.410847 5.856077 4.894652 -3.325410 2.976840 -9.124019 -4.709635 -1.239836 -49.116109 -5.857477 4.831018 -2.045274 -10.495175 0.056073 2.445642 13.148202 -4.485735 0.000996 -0.096735 -0.002033 -11.090356 1.596155 -0.338395 11.365757 -1.295330 0.100125 -10.860756 3.150491 1.536174 -0.000099 0.000095 0.000001 1.002685 -0.774325 -1.243768 -0.000008 -0.000081 0.000032 -9.512785 -1.022169 0.400185 11.576713 0.902015 -0.171914 -12.955991 3.670784 0.728628 0.000003 -0.000000 0.000001 1.330669 -0.890918 -1.323029 -0.000003 0.000006 -0.000011 -0.000010 -0.000001 -0.000002 1.431523 0.732549 -1.048335 0.729039 -0.011632 -0.123501 -2.146078 -0.751386 1.153792 -0.000016 0.000056 -0.000025 -0.000011 0.000000 0.000001 0.368203 1.135924 -1.110258 2.813682 -0.001113 0.562314 -3.173365 -1.121965 0.534913 0.000003 -0.000023 0.000011 -1.615745 -0.960389 3.903444 -2.048207 1.385317 5.993102 -2.492392 2.285013 6.847017 -2.563858 1.444914 6.368146 -2.713769 0.514028 3.230827 
0.000000 0.000000 0.000000 0.000006 -0.000000 -0.000000 0.000026 0.000007 0.000000 0.684920 -1.485154 0.520425 4.727554 -1.104041 -0.147673 4.168151 -0.115676 0.031256 97.363445 0.401325 5.837762 4.931036 -3.305994 3.004523 -9.103262 -4.709963 -1.237835 -49.037715 -5.850642 4.826501 -1.914793 -10.587625 0.160395 2.467742 13.134578 -4.563494 0.137810 0.000942 -0.001176 -11.095864 1.595028 -0.335650 11.365936 -1.295264 0.100107 -10.852907 3.155296 1.535905 -0.000099 0.000095 0.000002 0.999018 -0.775997 -1.246458 -0.000012 -0.000083 0.000033 -9.513932 -1.019651 0.396158 11.577562 0.902078 -0.171934 -12.955898 3.675029 0.741456 0.000004 -0.000000 0.000001 1.330202 -0.896422 -1.331778 -0.000003 0.000014 -0.000015 -0.000010 -0.000001 -0.000002 1.429639 0.738303 -1.054054 0.732147 -0.011686 -0.124027 -2.146430 -0.757215 1.159794 -0.000018 0.000058 -0.000025 -0.000011 0.000000 0.000001 0.368256 1.140985 -1.115050 2.813532 -0.001111 0.562285 -3.172518 -1.126700 0.539890 0.000001 -0.000028 0.000012 -1.474559 -1.115829 2.530625 -1.713982 0.389618 5.382148 -2.009972 1.329451 7.271721 -1.854099 0.621201 7.662405 -1.658264 -0.175726 5.776524 
0.000000 0.000000 0.000000 0.000006 -0.000000 -0.000000 0.000026 0.000007 0.000000 0.685066 -1.493036 0.519515 4.727504 -1.104241 -0.147789 4.167892 -0.109246 0.031491 97.280690 0.382759 5.806696 5.025245 -3.262072 3.066456 -9.049608 -4.709686 -1.236679 -48.835135 -5.824253 4.811116 -1.786203 -10.680850 0.270449 2.488493 13.116555 -4.634514 0.494491 0.002971 -0.004583 -11.101424 1.593898 -0.332910 11.367385 -1.295427 0.100135 -10.845074 3.159575 1.535616 -0.000099 0.000095 0.000002 0.995259 -0.777556 -1.248938 -0.000008 -0.000085 0.000034 -9.515082 -1.017140 0.392123 11.578409 0.902144 -0.171953 -12.955817 3.678694 0.753846 0.000003 -0.000000 0.000001 1.329780 -0.901770 -1.340047 -0.000005 0.000022 -0.000019 -0.000010 -0.000001 -0.000002 1.427744 0.743641 -1.059391 0.735155 -0.011739 -0.124539 -2.145787 -0.762697 1.165205 -0.000018 0.000058 -0.000026 -0.000011 0.000000 0.000001 0.367359 1.145505 -1.119627 2.813386 -0.001110 0.562256 -3.171602 -1.131121 0.544503 0.000001 -0.000034 0.000014 -1.348116 -1.209088 1.070372 -1.389053 -0.598187 4.489487 -1.495792 0.348186 7.480923 -1.094755 -0.190448 8.730363 -0.540567 -0.784557 8.120226 
